# xmcd
#
# Track frame offsets: 
#        150
#        13457
#        26282
#        38690
#        51380
#        63752
#        75792
#        87547
#        99547
#        112122
#        124830
#        136715
#        148692
#        161980
#        173935
#        186060
#        194970
#        206827
#        212000
#        223777
#        236380
#        248085
#        259802
#        271307
#        283172
#
# Disc length: 3936 seconds
#
# Revision: 3
# Processed by: cddbd v1.5.2PL0 Copyright (c) Steve Scherf et al.
# Submitted via: ExactAudioCopy v1.1
#
DISCID=7c0f5e19
DTITLE=Bob Wills and His Texas Playboys - San Antonio Rose - Disc 7
DYEAR=2000
DGENRE=Country
TTITLE0=My Confession (mono)
TTITLE1=Ten Years (mono)
TTITLE2=This Little Rosary (mono)
TTITLE3=When It's Honey Suckle Time In The Valley (mono)
TTITLE4=Let's Ride With Bob (mono)
TTITLE5=My Laddie (mono)
TTITLE6=Whose Heart Are You Breaking Now? (mono)
TTITLE7=Hang Your Head In Shame (alt - take 3) (mono)
TTITLE8=Smoke On The Water (alt - take 3) (mono)
TTITLE9=Texas Playboy Rag (inst) (alt - take 1) (mono)
TTITLE10=Bluer Than Blue (alt - take 1) (mono)
TTITLE11=Hang Your Head In Shame (master - take 2) (mono)
TTITLE12=Smoke On The Water (master - take 2) (mono)
TTITLE13=Texas Playboy Rag (inst) (master - take 2) (mono)
TTITLE14=Bluer Than Blue (master - take 2) (mono)
TTITLE15=Roly Poly (false start) (mono)
TTITLE16=Roly Poly (master - take 1) (mono)
TTITLE17=Frankie Jean (mono)
TTITLE18=You Don't Care What Happens To Me (master - take 1) (mono)
TTITLE19=Stay A Little Longer (master - take 1) (mono)
TTITLE20=You Should Have Thought Of That Before (master - take 1) (mon
TTITLE20=o)
TTITLE21=I Can't Go On This Way (mono)
TTITLE22=I'm Thru Wastin' Time On You (mono)
TTITLE23=Easy Rockin' Chair (mono)
TTITLE24=Just A Plain Old Country Boy (mono)
EXTD=
EXTT0=
EXTT1=
EXTT2=
EXTT3=
EXTT4=
EXTT5=
EXTT6=
EXTT7=
EXTT8=
EXTT9=
EXTT10=
EXTT11=
EXTT12=
EXTT13=
EXTT14=
EXTT15=
EXTT16=
EXTT17=
EXTT18=
EXTT19=
EXTT20=
EXTT21=
EXTT22=
EXTT23=
EXTT24=
PLAYORDER=
